<?xml version="1.0" encoding="UTF-8"?>
<svg id="Layer_1" xmlns="http://www.w3.org/2000/svg" version="1.1" xmlns:xlink="http://www.w3.org/1999/xlink" viewBox="0 0 452.93 487.8">
  <!-- Generator: Adobe Illustrator 29.2.1, SVG Export Plug-In . SVG Version: 2.1.0 Build 116)  -->
  <defs>
    <style>
      .st0 {
        fill: #0363f6;
      }

      .st6 {
        fill: #f7d131;
      }
     
     
    </style>
   
  </defs>

 
  
  <path id="Path_543" class="st6" d="M236.06,17.03h0c6.54,5.31,9.38,13.95,7.25,22.11l-8.64,33.08-9.89,37.85c-.33,1.24-1.6,1.98-2.84,1.66-.81-.21-1.44-.85-1.66-1.66l-9.89-37.85-8.64-33.08c-3-11.48,3.88-23.21,15.36-26.21,6.61-1.73,13.65-.2,18.95,4.1"/>
  <path id="Path_544" class="st0" d="M228.5,27.3c0,3.3-2.68,5.98-5.98,5.98s-5.98-2.68-5.98-5.98,2.68-5.98,5.98-5.98h0c3.3,0,5.98,2.68,5.98,5.98"/>
</svg>