<?xml version="1.0" encoding="utf-8"?>
<!-- Generator: Adobe Illustrator 28.0.0, SVG Export Plug-In . SVG Version: 6.00 Build 0)  -->
<svg version="1.1" id="Layer_1" xmlns="http://www.w3.org/2000/svg" xmlns:xlink="http://www.w3.org/1999/xlink" x="0px" y="0px"
	 viewBox="0 0 687.3 554.2" style="enable-background:new 0 0 687.3 554.2;" xml:space="preserve">
<style type="text/css">
	.st0{fill:#ED1D24;}
	.st1{fill:#C02030;}
	.st2{fill:#010101;}
	.st3{fill:#FFFFFF;}
</style>
<g>
	<path class="st0" d="M220.5,173.9c0,74.6,60.5,135,135,135s135.1-60.5,135.1-135c0-74.6-60.5-135-135.1-135S220.5,99.3,220.5,173.9
		"/>
	<path class="st1" d="M432.9,47.7c-0.1,0.1-0.1,0.2-0.1,0.2C432.9,47.8,432.9,47.8,432.9,47.7"/>
	<path class="st2" d="M355.3,291.9c-12.6,0-24-7-29.6-18.3L299.2,221c-11.1,6.6-35.3,19.1-63.7,21.1c-5.7,0.4-11.3,0.6-16.6,0.6
		c-23.7,0-35.4-4.1-37.5-4.9c-1.5-0.6-6.9-2.8-10.6-7.4c-3.4-4.2-4.4-9.9-2.6-15c1.7-5.1,5.9-9,11.1-10.3c1.4-0.3,2.9-0.5,4.5-0.6
		h0.3h0.1c0,0,0.6,0.1,2.1,0.2h0.1h0.2c0.2,0,1.1,0.1,2.3,0.1c3.5,0,8.1-0.7,10.3-4.3c1.9-3.1,4.5-7.2,8.2-10.8
		c7.1-7,22.2-19.4,45-26.2l-0.1-0.2c-0.2-0.4-0.4-0.8-0.6-1.3c-1.6-3.2-2.8-6.6-3.7-10c-2.2-8.4-1.7-15.9-0.9-20.8v-0.1l0.2-1.2
		c0.3-1.6,1-4.2,2.2-7.5c0-0.1,0-0.1,0.1-0.2c0.4-1.2,0.9-2.4,1.4-3.7l0.1-0.2l0,0c0.3-0.7,0.6-1.4,1-2.1
		c4.3-9.3,12.9-22.5,29.2-32.6l5.9-3.7l-2.2,6.6c-0.1,0.2-8.3,24.9-0.4,37.1l0.1,0.1l0.1,0.1c0.2,0.3,0.4,0.6,0.6,0.9l0.2,0.2
		l0.2,0.3c0.5,0.8,1,1.4,1.6,2l0.3,0.3c1.6,1.8,3.4,3.5,5.6,5c0.4,0.3,0.8,0.5,1.1,0.7l0.4,0.2l0.4,0.3c0,0,0.2,0.1,0.3,0.2l0.4,0.2
		c3-3.8,7.2-6.3,11.9-7.4c4.7-4.1,10.9-6.4,17.4-6.4c0.6,0,1.2,0,1.8,0.1c3.7-2.1,7.8-3.1,12-3.1c2.7,0,5.3,0.4,7.9,1.3
		c2.8-0.8,5.7-1.3,8.8-1.3c3.1,0,6,0.4,8.8,1.3c2.6-0.9,5.3-1.3,7.9-1.3c4.3,0,8.3,1.1,12,3.2c0.6,0,1.2-0.1,1.8-0.1
		c6.5,0,12.6,2.3,17.4,6.4c4.7,1.1,8.9,3.6,11.9,7.3c5.4-3.2,9.2-6.8,11.6-11V123l0.5-0.5c1-1.8,7.7-15.1,3.4-30.3l-1.5-5.4l5.4,2.7
		l0.1,0.1c2.3,1.5,18.9,12.7,26.1,31.3c0.1,0.3,0.3,0.7,0.4,1.1s0.3,0.8,0.4,1.2c1.9,5.3,2.8,10.9,2.8,16.6c0.1,2.9-0.1,12.8-6,23.8
		c22.8,6.7,37.9,19.2,45,26.2c3.7,3.7,6.3,7.7,8.2,10.8c2.1,3.5,6.7,4.3,10.3,4.3c1,0,1.7-0.1,2.2-0.1l0.1-0.1h0.5
		c0.1,0,0.2,0,0.2,0c0.4,0,1.1-0.1,2-0.1c0.5,0,1.1,0,1.6,0.1h0.2c0.9,0.1,1.9,0.3,2.8,0.5c5.2,1.3,9.4,5.1,11.1,10.3
		c1.8,5.2,0.8,10.8-2.6,15c-3.6,4.4-8.6,6.6-10.6,7.4c-2.1,0.8-14,4.9-37.5,4.9c-5.3,0-10.9-0.2-16.6-0.6
		c-27.9-2-51.8-14.1-62.8-20.5l-28.1,52.7C378.8,285.1,367.5,291.9,355.3,291.9"/>
	<path class="st2" d="M282.5,85.9c0,0-8.8,25.8-0.2,39.3c0.2,0.5,0.5,0.9,0.8,1.3l0.2,0.2l0.1,0.2c0.6,0.9,1.2,1.7,1.8,2.4l0.2,0.3
		c1.7,2,3.7,3.8,6,5.4c0.5,0.3,0.9,0.6,1.3,0.8l0.4,0.2l0.3,0.2c0.1,0.1,0.4,0.2,0.6,0.4l0.3,0.2l0.3,0.2c0.5,0.3,1,0.6,1.5,0.8
		c0.1,0,0.2,0.1,0.3,0.1c2.5-3.8,6.6-7.3,12.4-8.4c4.3-3.9,10-6.2,16.2-6.2c0.8,0,1.6,0,2.4,0.1c2.8-1.7,6.7-3.2,11.4-3.2
		c2.7,0,5.3,0.5,7.9,1.4c2.4-0.8,5.3-1.4,8.8-1.4s6.4,0.6,8.8,1.4c2.6-0.9,5.2-1.4,7.9-1.4c4.8,0,8.6,1.5,11.4,3.2
		c0.8-0.1,1.6-0.1,2.4-0.1c6.2,0,11.9,2.2,16.2,6.2c5.8,1.1,9.9,4.5,12.3,8.3c7-3.8,12-8.3,14.9-13.7l0,0c0,0,0.1-0.1,0.1-0.2
		c1.1-2,8.2-16,3.7-32.3l0,0c1.1,0.7,18.1,11.6,25.4,30.2c0.1,0.3,0.3,0.7,0.4,1c0.1,0.4,0.3,0.8,0.4,1.2c1.6,4.5,2.7,9.8,2.7,15.8
		c0.1,2.5,0,13.6-7.3,25.3c23.6,6.2,39.2,18.6,47.1,26.4c3.5,3.5,6,7.3,7.8,10.3c2.7,4.5,8.2,5.5,12.4,5.5c1.3,0,2.3-0.1,2.8-0.2
		h0.1c0.1,0,0.1,0,0.2,0h0.1c0.4,0,1.1-0.1,1.8-0.1c0.4,0,0.9,0,1.4,0.1l0,0c0.9,0.1,1.7,0.2,2.5,0.4c4.4,1.1,7.9,4.3,9.3,8.6
		c1.5,4.4,0.7,9.1-2.2,12.7c-3.3,4.1-8.2,6.1-9.5,6.6c-2,0.8-13.4,4.7-36.6,4.7c-5.2,0-10.8-0.2-16.4-0.6
		c-29.3-2.1-54.3-15.6-63.9-21.5l-29.3,55c-5.3,10-15.7,16.2-27.1,16.2c-11.7,0-22.1-6.5-27.4-16.9l-27.7-55
		c-8.8,5.5-34.5,20-64.9,22.1c-5.7,0.4-11.2,0.6-16.4,0.6c-23.2,0-34.6-3.9-36.6-4.7c-1.3-0.5-6.2-2.5-9.5-6.6
		c-2.9-3.6-3.7-8.3-2.2-12.7c1.5-4.3,4.9-7.5,9.3-8.6c1.2-0.3,2.6-0.5,3.9-0.5h0.1c0,0,0.7,0.1,2.3,0.2h0.1c0.5,0.1,1.4,0.1,2.6,0.1
		c4.2,0,9.7-1,12.4-5.5c1.8-3,4.3-6.9,7.8-10.3c7.9-7.7,23.4-20.1,47-26.4c-0.5-0.8-1-1.7-1.4-2.5c-0.2-0.4-0.5-0.9-0.7-1.6
		c-1.5-3.1-2.7-6.3-3.5-9.6c-2.1-8-1.6-15.1-0.9-19.7c0,0,0-0.1,0-0.2c0-0.1,0-0.2,0.1-0.3c0-0.2,0.1-0.4,0.1-0.7
		c0.3-1.4,0.9-3.9,2.1-7.1v-0.1c0.4-1.1,0.9-2.3,1.4-3.6c0,0,0-0.1,0.1-0.1c0.3-0.7,0.6-1.4,1-2.1
		C258.7,107.9,267.1,95.5,282.5,85.9 M291.7,74.3l-11.8,7.3c-16.7,10.4-25.6,24-30.1,33.6c-0.3,0.7-0.6,1.4-0.9,2l0,0l-0.2,0.4l0,0
		l0,0c-0.5,1.3-1,2.5-1.5,3.7c0,0.1-0.1,0.2-0.1,0.3c-1.2,3.4-1.9,6.1-2.3,7.8c-0.1,0.3-0.1,0.5-0.1,0.7l0,0c0,0.1,0,0.2-0.1,0.3
		v0.2v0.1v0.1v-0.1l0,0c-0.9,5.1-1.4,12.9,1,21.8c0.8,3.2,1.9,6.3,3.3,9.3c-20.6,6.6-34.8,17.6-43.3,25.9c-3.9,3.8-6.6,8.1-8.6,11.3
		c-1.5,2.5-5.2,3.1-8.1,3.1c-1.1,0-1.9-0.1-2-0.1h-0.3h-0.2c-1.3-0.1-1.9-0.2-1.9-0.2h-0.3h-0.3h-0.1h-0.1h-0.1
		c-1.7,0-3.4,0.3-5,0.7c-6.1,1.5-10.9,6-12.9,11.9c-2,6-0.9,12.5,3.1,17.4s9.5,7.3,11.7,8.2c2.3,0.9,14.4,5,38.4,5
		c5.4,0,11-0.2,16.8-0.6c27.1-1.9,50.4-13.1,62.5-20.1l25.2,50.2c6.1,12.1,18.3,19.6,31.9,19.6c13.2,0,25.3-7.2,31.5-18.9l26.9-50.4
		c11.9,6.7,35,17.7,61.6,19.6c5.8,0.4,11.4,0.6,16.8,0.6c23.3,0,35.3-3.8,38.4-5c2.2-0.8,7.7-3.2,11.6-8.2
		c3.9-4.9,5.1-11.4,3.1-17.4c-2-5.9-6.8-10.4-12.9-11.9c-1-0.2-2.1-0.4-3.1-0.5h-0.3h-0.1c-0.5,0-1.1-0.1-1.7-0.1
		c-1,0-1.8,0.1-2.3,0.1h-0.1h-0.9l-0.2,0.1c-0.4,0-0.9,0.1-1.5,0.1c-2.9,0-6.6-0.5-8.1-3.1c-2-3.3-4.7-7.5-8.6-11.3
		c-7-6.9-21.5-18.9-43.3-25.9c4.9-10.4,5-19.4,5-22.4c0-5.9-1-11.8-3-17.4c-0.1-0.4-0.3-0.8-0.5-1.3c-0.1-0.4-0.3-0.8-0.5-1.2
		c-7.6-19.4-25-31.1-27.1-32.5c-0.2-0.2-0.4-0.3-0.7-0.4l-10.1-5l3,10.8c3.8,13.6-1.7,25.6-3,28.1l-0.9,0.9v0.7
		c-1.9,3.2-4.8,6-8.7,8.5c-3.1-3.1-6.9-5.3-11.2-6.4c-5.1-4.3-11.6-6.6-18.5-6.6c-0.4,0-0.8,0-1.2,0c-3.9-2.1-8.2-3.1-12.6-3.1
		c-2.7,0-5.3,0.4-7.9,1.2c-2.8-0.8-5.7-1.2-8.7-1.2s-6,0.4-8.7,1.2c-2.6-0.8-5.3-1.2-7.9-1.2c-4.4,0-8.7,1-12.6,3.1
		c-0.4,0-0.8,0-1.2,0c-6.9,0-13.4,2.3-18.6,6.6c-4.3,1.1-8.2,3.3-11.3,6.5c-0.3-0.2-0.5-0.3-0.8-0.5c-2-1.4-3.7-2.9-5.1-4.5v-0.1
		v-0.1l-0.2-0.3l0,0l0,0c-0.5-0.5-0.9-1-1.3-1.7l-0.1-0.2l-0.1-0.1l-0.1-0.1l-0.1-0.2c-0.1-0.2-0.2-0.4-0.4-0.6l-0.1-0.2l-0.1-0.2
		c-6-9.3-1.5-28.4,0.7-35L291.7,74.3z"/>
	<path class="st2" d="M534.6,489.1c-0.2-2.8-0.8-5.4-1.8-7.9c-0.9-2.4-2.2-4.6-3.8-6.4s-3.5-3.4-5.8-4.6s-4.8-2-7.6-2.4h-31.1v30.3
		h13v-21.3h13.1c5.6,1.8,9,4.8,10.4,8.9c0.5,1.7,0.8,3.4,0.8,5.1c0,1.2-0.1,2.4-0.3,3.5c-0.2,1.2-0.6,2.4-1.1,3.6
		c-1.7,4.4-5.6,7.3-11.6,8.7H480l0,0h-7.3c0.3-1.7,0.5-7.2,0.6-8.4c0.1-1.2,0.2-2.2,0.2-3c0-2.2-0.2-4.3-0.7-6.3
		c-0.4-1.9-1.1-3.7-1.9-5.3c-1.2-2.1-2.9-3.8-5.4-5.1c-2.4-1.3-5.3-2.2-8.7-2.6h-51.7c-3.2-0.7-3.7-2.2-1.7-4.6l40-18.8h-0.1
		l2.5-1.3v7.4h11.4v-19.9h-13.7l-45.3,21.4l0.2-0.1c-4.9,3.5-7.8,7.3-8.7,11.4c-0.1,0.5-0.2,1.1-0.2,1.7c-0.1,0.6-0.1,1.2-0.1,1.8
		c0,2.8,0.8,5.5,2.3,8.1h-0.1c2.1,3.6,6.4,5.6,12.8,6h-0.1c8.1,0,16.2,0,24.3,0c8,0,16.1,0,24.3,0c5.3-0.2,8.2,1.8,8.5,6
		c0.4,4.3-1.8,10.8-6.3,11.6h-68.9l0,0h-9.1c1.5-1.3,2.6-3,3.5-5.2c0.8-2.2,1.4-4.8,1.7-7.9v0.1c0-0.5,0.1-0.9,0.1-1.4
		c0-0.4,0-0.9,0-1.4c0-2.5-0.4-5-1.1-7.3s-1.7-4.5-3-6.6c-1.6-2.1-3.8-4-6.6-5.6c-2.8-1.6-6-2.8-9.5-3.5H328
		c-4.7,0.3-8.2,1.7-10.5,4.3c-2.3,2.7-3.5,6.2-3.6,10.3v12l12-4.4v-6.6c-0.2-2,0.2-3.7,1.2-4.9c0.9-1.2,2.8-2,5.6-2.3h22
		c3.9,0.7,7,1.9,9.3,3.4c2.3,1.6,3.8,3.6,4.6,6.1c0.7,2,1,4,1,5.9c0,1.2-0.1,2.4-0.4,3.6s-0.7,2.4-1.2,3.5c-2,4-5.9,6.5-11.5,7.7
		h-4.4v-8.1c-6,1-13,4-13,4V518h19.4c8.5,0,14.1-1.6,16.9-4.9c2.6,3.3,5.4,4.9,8.5,4.9h2.4l0,0h92.5h1.3h35.8
		c3.3-0.7,6.2-1.9,8.7-3.6c2.5-1.7,4.4-3.7,6-6c1.1-2.1,2.1-4.4,2.9-7c0.8-2.6,1.2-8.1,1.2-10.6c0-0.3,0-0.6,0-0.8
		C534.6,489.7,534.6,489.4,534.6,489.1"/>
	<path class="st2" d="M637.9,507.7h-6.3h-33.4c-3.9-1-6.9-2.5-9.2-4.5s-3.8-4.3-4.6-7c-0.3-1-0.5-1.9-0.6-2.9
		c-0.1-0.9-0.2-1.9-0.2-2.8c0-1.5,0.2-2.8,0.6-4.2c0.4-1.3,0.9-2.5,1.5-3.6c2.3-3.5,5.3-5.9,9.1-7.2h12.3v17.2h13.4v-26.5h-29.6
		c-4.8,0.9-8.9,2.3-12.1,4.3c-3.3,2-5.6,4.5-7.1,7.5c-2.2,4.5-3.3,8.6-3.3,12.5c0,1.5,0.2,3,0.6,4.4c1.2,5.2,3,9.5,5.6,12.9h-9.8
		h-8.1v-69h-13.3v81.1h21.5h66.8h11.9c2.9-0.2,4.9-1,6.1-2.5c1.2-1.6,1.8-3.4,1.7-5.4v-46.5H638v42.2H637.9z"/>
	<rect x="671.7" y="416.2" class="st2" width="15" height="103.6"/>
	<rect x="637.9" y="438.7" class="st2" width="13.4" height="13.1"/>
	<polygon class="st2" points="313.9,511.7 314,553.9 326,553.9 325.9,506 	"/>
	<polygon class="st2" points="65.2,332.1 30,401.2 22.3,416.3 39.2,416.3 46.9,401.2 65.2,365.2 83.6,401.2 91.3,416.3 108.1,416.3 
		100.4,401.2 	"/>
	<polygon class="st2" points="204.2,416.3 204.2,332.1 189.2,332.1 189.2,385.7 135.1,344 120.1,332.4 120.1,416.3 135.1,416.3 
		135.1,363 189.2,404.7 	"/>
	<polyline class="st2" points="233.1,416.3 259.1,365.2 277.5,401.2 285.2,416.3 302,416.3 294.4,401.2 259.1,332.1 216.2,416.3 	
		"/>
	<polygon class="st2" points="329,362.7 343.8,374 356.1,383.5 368.4,374 383.1,362.7 383.1,416.3 398.2,416.3 398.2,332.1 
		383.1,343.7 356.1,364.5 329,343.7 314,332.1 314,416.3 329,416.3 	"/>
	<path class="st2" d="M454.9,416.3H497v-15h-42.1c-14.9,0-27.1-12.1-27.1-27.1c0-14.9,12.1-27.1,27.1-27.1H497v-15h-42.1
		c-23.2,0-42.1,18.8-42.1,42.1C412.8,397.4,431.6,416.3,454.9,416.3"/>
	<path class="st2" d="M548.4,332.1c-23.2,0-42.1,18.8-42.1,42.1c0,23.2,18.8,42.1,42.1,42.1c23.2,0,42.1-18.8,42.1-42.1
		C590.5,351,571.6,332.1,548.4,332.1 M548.4,401.3c-14.9,0-27.1-12.1-27.1-27.1c0-14.9,12.1-27.1,27.1-27.1
		c14.9,0,27.1,12.1,27.1,27.1C575.5,389.1,563.3,401.3,548.4,401.3"/>
	<polygon class="st2" points="671.7,343.7 644.6,364.5 617.6,343.7 602.5,332.1 602.5,416.3 617.6,416.3 617.6,362.7 632.3,374 
		644.6,383.5 656.9,374 671.7,362.7 671.7,416.3 686.7,416.3 686.7,332.1 	"/>
	<path class="st0" d="M264.6,491.8c-5.8-0.9-13.6,5.2-16.3,8.6l0.1-4.1c0-0.6-0.6-1.7-1.6-2.2c-1.1-0.5-2.1-0.5-2.1,0.2
		c-0.2,1.7-0.4,3.3-0.5,4.7c-4.4,4.7-11.8,12-21.7,12c-3.7,0-7.4-3.4-7.7-5.4c3.7,0,8.2-2.5,9.6-5.9c1.2-3.1-1.9-6.2-5.2-6.2
		c-4.9,0.2-7.9,4.4-8.3,8.8c-4.9,3-11.9,5.3-15.9,5.3c-1.2,0-2.3-0.2-3.4-0.7c-0.7-3.1,0.1-6-0.2-8.6c-0.4-1.4-2-2.6-3.5-3.1
		c-6-1.9-15,6.6-18.3,10.3v-9.4c0.1-8.2,0.2-16.1,0.6-23.9c5.4,0.3,10.4,0.7,14.4,1.5c0.8,0.1,1.4-0.3,1.3-1.2
		c-0.4-0.6-1.5-1.7-2.4-2.1c-3.3-0.7-7.9-1.2-13.1-1.5l0,0c0-1.1-0.9-2.1-2-2.1h-1.6h-0.1c0,0.6-0.1,1.3-0.1,2
		c-3-0.1-6.2-0.2-9.4-0.2c-7.3,0-14.7,0.3-30.1,1c0.5-6.5,1.2-12.9,1.7-16.8c0-2-4-3.1-4.2-1.4c-0.2,1.4-0.5,3.3-0.7,5.7
		c-0.2,2.5-0.4,5.4-0.5,8.5c0,0.6,0,1.1,0,1.7l-0.2,2.5c-13.2,0.7-19.9,1.5-27.1,2.7c-1.8,0.4,0.4,3.2,2.4,2.9
		c8.1-1.4,14.8-2,24.1-2.4c-2.3,13.6-10.1,33-16.8,34.4c-3.4,0.7-3.8-2.4-3.8-5.5c0-1.9,0.1-3.7-0.1-4.6c-0.7-1.4-3.7-2.6-3.9-1.5
		c-0.6,3.1-3,6.9-5.4,9.4c-1.6,1.4-4.8,4-6.9,2.6c-1.6-1.1-1.8-4-1.7-5.7c0.2-1.5,1-5,2.5-5.4c1.7-0.3-1.2-3.5-3-3.1
		c-0.9,0.3-1.6,1.3-2.2,2.3c-0.7,1.6-1.1,3.3-1.1,5c0,0.3,0,0.6,0,0.8c-1.2-0.2-2.8-0.2-4.6-0.2c-3.9,0-9,0.3-13.1,0.8
		c-3.2-7.6-9.2-12.5-15.8-15.3c10.1-3.5,16.6-11.9,16.4-20.2c-0.2-8.7-7.4-17.9-23.2-21c-5.4-1.2-11.1-1.6-16.5-1.4
		c0.4-4.8,0.9-8.8,1.5-11.7c0-0.5-1.1-1.4-2.1-1.5c-1.7-0.3-1.5,0-1.6,0.4c-0.6,2.9-1.2,7.5-1.7,13l-1.7,0.2v3.4
		c0.5-0.1,0.9-0.1,1.4-0.2c-1.5,19-2.8,37.6-2.8,55.8c0,3.5,0,7,0.1,10.5c-6.3,3.1-12.2,7.3-14.6,12.7c-0.4,1.2-0.6,2.1-0.6,3.1
		c0,8.1,15.4,10.7,20.9,10.9c5.9,0.1,12.2-0.8,17.4-2.7C52.9,533.6,64,523,64,509.5c0-1.3-0.1-2.5-0.3-3.8l0.2-0.1
		c5.1-0.8,10.7-1.3,16.7-1.8c0.1,0.4,0.2,0.7,0.3,1.1c1.2,3.5,4.6,6.3,8.1,6.3c4.3,0,7.7-3.9,9.6-6.8c1.5,3.4,4.8,6.2,8.7,6.1
		c5.9-0.1,11.2-11.4,14.3-20.6c-0.1,5.6-0.3,15.3-0.3,24.7c0,10.6,0.2,20.6,1.1,23.8c0.5,2.6,2.5,4.6,3.4,4c0.7-0.5-0.1-1.8-0.3-3.9
		c-0.3-3.8-0.4-9.6-0.4-16.2c0-12.1,0.4-26.3,0.7-34.6c0-2.9,0.6-9,1.1-15.2c10.8-0.1,20.8-0.8,30.9-0.8c2.9,0,5.9,0,8.9,0.1
		c-0.2,7.1-0.4,14.4-0.4,22.1v5.2c-6.2,5.3-13.5,10.5-21.9,11.1c-4.8,0-7.5-3.1-6.5-7.6c0.8-4,4.8-7.9,8.7-7.1
		c-0.1,1.2-0.5,2-0.7,2.4c-0.7,1.4,0.2,1.8,1.3,1.4c0.9-0.3,3.2-1.1,3.2-2.9c-0.1-1.1-1.1-2.3-2.4-3.1c-1.4-0.7-2.8-0.9-3.9-0.9
		c-2.3,0-4.2,0.9-5.7,2.1c-2.4,2-3.7,4.9-3.8,7.8c-0.3,6.9,5.7,11,11.8,11c10.5-0.6,17.1-6.3,20.1-10.1v5.6c0,2,0,3.3,0.1,3.5
		c0.4,1.7,3.7,3.1,3.6,1.5c0.4-4.9,11.5-16.1,17.5-15.7c0,0.7-0.2,2-0.2,3.5c0,2.2,0.5,5,3,6.8c2.4,1.6,4.8,2.1,7.1,2.1
		c5,0,10.6-2.2,14.2-4.8c0,0.1,0.1,0.2,0.1,0.3c2.1,6.5,10.1,7.7,16.4,7.4c6.5-0.4,12.7-4.6,16-9.9c-0.4,5.5-0.2,7,0.1,7.7
		c0.4,1.6,3.9,3,3.8,1.6c0.4-3.1,0.4-3.7,0.7-4.5c2.5-7.3,11.3-13.7,16.6-13.6l-0.1,0.8c-0.1,0.8,1.4,1.5,2.9-0.2
		C268.5,494.5,267,492.2,264.6,491.8 M23.1,447.5c1.4-0.1,2.6-0.1,4-0.1c3.8,0,7.5,0.3,11.1,0.8c14.6,2.6,21.2,11.6,21.1,19
		c-0.1,8.3-9.6,16.5-16.9,17.6c-3.1-0.9-5.9-1.4-8.3-1.4c-3.2,0-5.8,0.6-7.5,1.6c-0.7,0.3-1.4,0.4-1.1,2.1c0.7,1.6,5.7,2,9.8,1.8
		c2.7-0.1,5.1-0.2,7.4-0.7c7,2.1,13.9,7.2,16.7,14.4c-8.6,1.3-20.7,3.1-31.2,6.8c-2.6,0.9-5.5,1.9-8.3,3.2
		C20.3,491.7,21.9,466.9,23.1,447.5 M37.6,535.1c-5.6,1.8-11.7,2.6-17.1,2.4c-5.2-0.1-18.5-1.1-16-8.3c2.5-4.7,7.3-8.2,12.4-10.9
		c0.3,3,0.8,5.5,1.6,7.1c0.3,0.8,1.3,2.2,2.4,2.3c0.6,0,0.8-0.3,0.7-0.8c-0.9-2.3-1.4-5.9-1.6-10.1c3.6-1.7,7.4-3,10.6-4.1
		c8.4-3.1,17.7-4.6,29.8-6.5C61.8,522.4,48.8,531.3,37.6,535.1 M214.9,501.7L214.9,501.7c0.2-0.4,0.4-0.9,0.5-1.3l0,0
		c1.3-2.5,3.9-5.1,5.5-3.4c1.2,1.2-1.8,4-6.2,6C214.7,502.6,214.8,502.2,214.9,501.7"/>
	<path class="st0" d="M360.5,490.3c-32.7,1.3-59.5,14.2-64,17.7l-0.1,0.1v-0.4c-0.1-6.1-0.6-10.5-0.7-10.7c-0.1-1.2-1.9-2.4-3-2.4
		c-0.4,0-0.8,0.1-0.9,0.3c-0.1,0.1-0.2,0.1,0,0.2c-0.1,0.1-0.3,0.2-0.3,0.4c-0.2,3.4-9.5,15.7-14,13.2c-1.8-1.1-2-4.1-2.2-5.8
		c0.1-1.5,0.4-2.9,0.6-3.9c0.5-1.1,1.1-1.7,1.5-1.8c0.5-0.2,0.5-1.2-0.3-2s-2-1.3-2.6-1.1c-1.1,0.3-1.7,1.4-2.1,2.5
		c-0.5,1.4-0.7,2.9-0.7,4.3c0,1.8,0.4,3.6,1,5.1c1.4,3.4,4.8,6,8.2,6c3.5,0,8.3-4.2,11.4-8.3l0.5,6.9l-2.6,1.9
		c-10.7,7.9-19.1,18.5-20.7,26.6c-0.5,3.8,1.2,7.6,4,10.6c3,3,7.2,4.7,9.8,4.1c9.2-1.9,12-16.4,12.9-29.7l0.3-9.8l0.1-0.7l0.1-0.3
		c4.2-2.9,27.9-15.2,63.9-21.9C361.4,491.3,361.8,490.2,360.5,490.3 M280.4,550.7c-1.3,0.3-3.3-0.5-4.9-2c-1.3-1.5-2.9-4.1-2.2-7.4
		c1.2-7.1,8.3-15.6,16.9-23.5l2.4-2.2C292.8,530.4,288.4,549.1,280.4,550.7"/>
	<path class="st0" d="M197.1,198.4c1.6-2.6,3.7-5.9,6.5-9.1c-0.7-5.7-1-11.6-1-17.5c0-84.2,68.2-152.4,152.4-152.4
		s152.4,68.2,152.4,152.4c0,5.7-0.3,11.2-0.9,16.7c3.2,3.3,5.5,7,7.2,9.8c2.1,3.6,6,5,9.6,5.4c2-10.4,3-21,3-32
		c0-94.5-76.6-171.1-171.1-171.1s-171,76.8-171,171.3c0,10.9,1,21.6,3,32C190.9,203.4,194.9,202.1,197.1,198.4"/>
	<path class="st3" d="M185.7,227.1c0,0,14.7,5.9,49,3.5c30.2-2.1,56-17.8,61.6-21.4c0.6-0.4,0.7-1.3,0.2-1.8
		c-9-8.8-16.9-8.3-16.9-8.3c-7.6,0-14.7,4.5-14.7,4.5c2.8-4.1,6.9-7.3,6.9-7.3c-12.2-1.8-21.8,4.1-21.8,4.1c2.6-4.2,4.5-5.5,4.5-5.5
		c-14.2,1.2-23.7,8.2-23.7,8.2c2.5-4.5,4.8-6.8,4.8-6.8c-8.6,2.1-14.9,7.6-14.9,7.6c24.2-26.7,51.1-30.2,55.7-30.6
		c2.6,1.8,5.6,3.5,9,5.1l0,0c1,0.5,2.1,1,3.1,1.5c7.8,3.7,16.1,6.1,23.7,10.2c3.7,2,7.3,4.4,10.5,7.2c1.8,1.6,3.5,3.3,4.8,5.3
		c0.3,0.5,0.6,1,0.9,1.6c0.1,0.1,0.2,0.5,0.3,0.5c-17.5-13-30.8-13.1-31.2-13.1l38.6,76.8c3.6,7.2,11,11.7,19,11.7
		c7.9,0,15.1-4.3,18.8-11.3l41.1-77.2c-18.2-0.5-33.4,13.6-33.4,13.6c6.9-14.6,38.1-24.5,38.1-24.5c5.9-2.1,10.6-4.7,14.6-7.5
		c5,0.5,31.6,4.2,55.6,30.6c0,0-6.2-5.5-14.9-7.6c0,0,2.3,2.3,4.8,6.8c0,0-9.5-7-23.7-8.2c0,0,1.8,1.3,4.5,5.5c0,0-9.6-5.9-21.8-4.1
		c0,0,4.1,3.2,6.9,7.3c0,0-7-4.5-14.7-4.5c0,0-7.9-0.5-16.9,8.3c-0.5,0.5-0.4,1.4,0.2,1.8c5.7,3.7,31.4,19.3,61.6,21.4
		c34.2,2.4,49-3.5,49-3.5s3.5-1.2,5.5-3.7c1.8-2.2,0.7-5.6-2.1-6.3c-0.6-0.1-1.2-0.2-1.9-0.2c0,0-17.4,3.2-25.1-9.7
		c-1.8-3-3.8-6-6.3-8.5c-8.3-8.2-27.7-23.6-58.5-26.9c17.2-13.6,15.9-31.3,15.9-31.3c0-17.1-10.9-27.4-10.9-27.4
		c-0.6,18.8-13.7,29.8-29.3,36.3c-1-1.5-2.5-3.1-4.8-4.2c-1.1-2.9-4-6.5-10-6.4c-2.4-3.4-7.7-7.3-16.4-5.2c-3.2-3-9.4-5.9-16.8-1.3
		c-1.7-1.1-4.5-2.4-8.8-2.4s-7.1,1.3-8.8,2.4c-7.4-4.6-13.7-1.8-16.8,1.3c-8.7-2.1-14.1,1.8-16.4,5.2c-6-0.1-9,3.5-10,6.4
		c-2.3,1-3.8,2.7-4.8,4.2c-2.3-0.9-4.5-1.9-6.7-3c-0.7-0.4-1.4-0.7-2-1.2c-0.5-0.3-1.1-0.6-1.6-1c-0.7-0.4-1.3-0.8-1.9-1.2
		c-2.9-2-5.5-4.3-7.8-6.9c-1.1-1.1-2-2.4-2.8-3.6c-0.6-0.8-1.1-1.6-1.5-2.4c-0.1-0.1-0.2-0.2-0.2-0.4c-0.2-0.3-0.3-0.5-0.4-0.8
		c-0.2-0.4-0.4-0.8-0.6-1.2c-0.5-1.1-1-2.2-1.4-3.4c-0.1-0.4-0.3-0.7-0.4-1.1c-0.6-2-1-3.8-1.2-5.2c-0.5-3.1-0.3-5-0.3-5l0,0
		l-0.1,0.1c-0.9,1-6.5,7-9.4,15.4l0,0c0,0-0.4,0.9-0.8,2.6c0,0.1,0,0.1,0,0.2c-0.1,0.5-0.2,1.1-0.4,1.7c-0.1,0.3-0.1,0.5-0.1,0.8
		c-0.7,3.9-1,9.5,0.7,15.8c0.6,2.5,1.6,5.2,3,8c0,0.1,0.1,0.1,0.1,0.1c0.1,0.4,0.3,0.8,0.5,1.1c1.5,3,3.5,5.6,5.8,7.9l0,0
		c1.6,1.7,3.4,3.4,5.5,5c-30.8,3.3-50.2,18.7-58.6,26.9c-2.5,2.5-4.5,5.4-6.3,8.5c-7.7,12.9-25.1,9.7-25.1,9.7
		c-0.7,0-1.4,0.1-1.9,0.2c-2.7,0.7-3.8,4.1-2.1,6.3C182.2,225.9,185.7,227.1,185.7,227.1 M350.9,268.3v-80.8h9.9h9.6
		C367.6,241.5,350.9,268.3,350.9,268.3 M306.1,149.7l1.5-0.5l0.3-1.5c0.2-1,1.2-4.2,6.4-3.6l1.9,0.2l0.8-1.7
		c0.3-0.7,3.4-6.5,12.7-3.6l1.7,0.5l1.1-1.4c0.5-0.6,5.2-6.1,12.6-0.5l2,1.4l1.6-1.8c0.1-0.1,1.9-2.1,6.7-2.1c4.7,0,6.6,2,6.6,2.1
		l1.6,2l2-1.5c7.4-5.6,12.1-0.2,12.6,0.5l1.1,1.4l1.7-0.5c9.4-3,12.4,2.9,12.7,3.5l0.8,1.8l1.9-0.3c5.2-0.7,6.2,2.5,6.4,3.5l0.3,1.6
		l1.6,0.5c1.2,0.3,2,1,2.6,1.7c-16.8,5.8-31.8,7.2-40.8,7.4c-3.1,0.1-5.5,2.6-5.5,5.7V184h-8.3c0,0-1.6-0.2-1.6-2.5V164
		c0-3-2.3-5.4-5.2-5.7c-5.3-0.5-14.1-1.2-19.4-2c-6-0.9-12-2-17.9-3.6c-1.7-0.4-3.3-0.9-5-1.5C304.1,150.6,304.9,150,306.1,149.7"/>
</g>
</svg>
