<svg id="calendar-date" xmlns="http://www.w3.org/2000/svg" width="31.38" height="31.38" viewBox="0 0 31.38 31.38">
  <g id="Group_91" data-name="Group 91">
    <path id="Path_222" data-name="Path 222" d="M17.315,29.415V18.954H16.073A24.711,24.711,0,0,0,13.5,20.535V21.9c.735-.5,1.9-1.216,2.467-1.524h.024v9.041Zm2.33-2.559a3.117,3.117,0,0,0,3.34,2.758c2.467,0,3.922-2.091,3.922-5.631,0-3.793-1.532-5.233-3.83-5.233A3.447,3.447,0,0,0,19.552,22.3a3.252,3.252,0,0,0,3.287,3.471,2.733,2.733,0,0,0,2.712-1.549H25.6c-.008,2.581-.9,4.244-2.559,4.244a1.94,1.94,0,0,1-2.059-1.608Zm5.792-4.544a2.3,2.3,0,0,1-2.322,2.314,2.159,2.159,0,0,1-2.244-2.353A2.218,2.218,0,0,1,23.161,19.9,2.184,2.184,0,0,1,25.436,22.312Z" transform="translate(-4.674 -6.492)" fill="#9a7a4d"/>
    <path id="Path_223" data-name="Path 223" d="M6.864,0a.981.981,0,0,1,.981.981v.981h15.69V.981a.981.981,0,1,1,1.961,0v.981h1.961A3.922,3.922,0,0,1,31.38,5.884V27.457a3.922,3.922,0,0,1-3.922,3.922H3.922A3.922,3.922,0,0,1,0,27.457V5.884A3.922,3.922,0,0,1,3.922,1.961H5.884V.981A.981.981,0,0,1,6.864,0Zm-4.9,7.845V27.457a1.961,1.961,0,0,0,1.961,1.961H27.457a1.961,1.961,0,0,0,1.961-1.961V7.845Z" fill="#9a7a4d"/>
  </g>
</svg>
