<svg xmlns="http://www.w3.org/2000/svg" width="27.514" height="27.514" viewBox="0 0 27.514 27.514">
  <g id="callalt" transform="translate(0 0)">
    <path id="Path_158" data-name="Path 158" d="M23.752,23.752l-2.445-2.445a10.067,10.067,0,0,0,2.042-3.385,11.909,11.909,0,0,0,.725-4.165,11.909,11.909,0,0,0-.725-4.165,10.067,10.067,0,0,0-2.042-3.385l2.445-2.445A14.122,14.122,0,0,1,26.52,8.276a15.108,15.108,0,0,1,.994,5.481,15.108,15.108,0,0,1-.994,5.481A14.122,14.122,0,0,1,23.752,23.752ZM20.1,20.1,17.68,17.68a6.117,6.117,0,0,0,1.236-3.923A6.117,6.117,0,0,0,17.68,9.834L20.1,7.416a8.655,8.655,0,0,1,1.666,2.848,10.616,10.616,0,0,1,0,6.986A8.655,8.655,0,0,1,20.1,20.1Zm-8.061,7.416h-1.72A8.7,8.7,0,0,1,6.3,26.56a10.177,10.177,0,0,1-3.278-2.687A12.76,12.76,0,0,1,.806,19.52,19.529,19.529,0,0,1,0,13.757,19.529,19.529,0,0,1,.806,7.994,12.76,12.76,0,0,1,3.023,3.641,10.177,10.177,0,0,1,6.3.954,8.7,8.7,0,0,1,10.318,0h1.72A1.662,1.662,0,0,1,13.26.5a1.662,1.662,0,0,1,.5,1.223V6.878a1.675,1.675,0,0,1-.5,1.209,1.64,1.64,0,0,1-1.223.511h-1.72a1.676,1.676,0,0,1-1.128-.416A1.618,1.618,0,0,1,8.625,7.12Q5.159,8.2,5.159,13.757t3.466,6.637a1.618,1.618,0,0,1,.564-1.061,1.676,1.676,0,0,1,1.128-.416h1.72a1.675,1.675,0,0,1,1.209.5,1.64,1.64,0,0,1,.511,1.223v5.159a1.744,1.744,0,0,1-1.72,1.72Z" transform="translate(0 0)" fill="#fff"/>
  </g>
</svg>
