<svg xmlns="http://www.w3.org/2000/svg" width="20.886" height="21.912" viewBox="0 0 20.886 21.912"><g transform="translate(0 -0.5)"><path d="M15.9.5a4.8,4.8,0,0,1,3.52,1.469,4.8,4.8,0,0,1,1.469,3.52,7.365,7.365,0,0,1-1.235,3.147q-1.235,2.121-2.424,4.312a6.493,6.493,0,0,0-1.049,3.5q0,.233-.256.233t-.256-.233a7.015,7.015,0,0,0-1.072-3.5q-1.166-2.191-2.4-4.312a7.365,7.365,0,0,1-1.235-3.147A4.84,4.84,0,0,1,12.4,1.969,4.725,4.725,0,0,1,15.9.5Zm.023,2.984a1.907,1.907,0,0,0-1.4.583,1.935,1.935,0,0,0-.583,1.422,1.935,1.935,0,0,0,.583,1.422,1.97,1.97,0,0,0,2.8,0A1.935,1.935,0,0,0,17.9,5.488a1.935,1.935,0,0,0-.583-1.422A1.907,1.907,0,0,0,15.921,3.484ZM2,2.5h8.625A5.96,5.96,0,0,0,9.7,5.721a9.472,9.472,0,0,0,1.492,3.87L.047,20.733,0,20.407V4.509A1.935,1.935,0,0,1,.583,3.087,1.935,1.935,0,0,1,2,2.5ZM14.452,15.325l-2.378-2.378.653-.7Q13.846,14.067,14.452,15.325ZM17.3,22.412H2.611L9.93,15.046ZM19.907,10.85v9.557l-.047.326L16.5,17.377q.14-.42.326-.862t.42-.932q.233-.49.443-.886t.559-1q.35-.606.513-.909t.583-1ZM4.662,11.969A2.159,2.159,0,0,1,3.4,11.642a1.026,1.026,0,0,1-.466-.886q0-.653.839-.979A3.558,3.558,0,0,1,4.8,9.638h.233a9.606,9.606,0,0,1,.839.7.763.763,0,0,1,.233.559.937.937,0,0,1-.42.746A1.62,1.62,0,0,1,4.662,11.969ZM3.5,6.281a.977.977,0,0,1,.256-.723A.8.8,0,0,1,4.336,5.3a1.077,1.077,0,0,1,.956.559,2.168,2.168,0,0,1,.35,1.166.816.816,0,0,1-.3.723,1.091,1.091,0,0,1-.629.21,1.016,1.016,0,0,1-.862-.536A2.055,2.055,0,0,1,3.5,6.281Zm2.424,2.89-.326-.28q-.28-.233-.28-.42a.677.677,0,0,1,.326-.559,1.71,1.71,0,0,0,.793-1.352,1.6,1.6,0,0,0-.653-1.212H6.34l.42-.42h-2a2.049,2.049,0,0,0-1.515.536A1.749,1.749,0,0,0,2.7,6.747a1.556,1.556,0,0,0,.42,1.072,1.488,1.488,0,0,0,1.166.466h.233l-.093.373a1.007,1.007,0,0,0,.28.653,3.763,3.763,0,0,0-1.865.513A1.289,1.289,0,0,0,2.1,10.99a1.2,1.2,0,0,0,.536,1,2.6,2.6,0,0,0,1.562.4,2.8,2.8,0,0,0,1.842-.559,1.619,1.619,0,0,0,.676-1.259A1.834,1.834,0,0,0,5.921,9.171Z" fill="#271f1e"/></g></svg>