<svg xmlns="http://www.w3.org/2000/svg" width="20.853" height="16.489" viewBox="0 0 20.853 16.489">
  <g id="mail-notification-outline" transform="translate(-4 -6.009)">
    <path id="Path_133" data-name="Path 133" d="M16.859,9H6.317A1.817,1.817,0,0,0,4.5,10.817v10.9A1.817,1.817,0,0,0,6.317,23.54H21.527a1.817,1.817,0,0,0,1.817-1.817V15.5" transform="translate(0 -1.541)" fill="none" stroke="#fff" stroke-linecap="round" stroke-linejoin="round" stroke-width="1"/>
    <path id="Path_134" data-name="Path 134" d="M10.5,15l6.543,5.089L21,17.105" transform="translate(-3.092 -4.633)" fill="none" stroke="#fff" stroke-linecap="round" stroke-linejoin="round" stroke-width="1"/>
    <circle id="Ellipse_1" data-name="Ellipse 1" cx="2.179" cy="2.179" r="2.179" transform="translate(19.767 6.736)" fill="#9a7a4d"/>
    <path id="Path_135" data-name="Path 135" d="M37.41,11.821a2.906,2.906,0,1,1,2.906-2.906A2.906,2.906,0,0,1,37.41,11.821Zm0-4.357a1.454,1.454,0,1,0,1.452,1.454A1.454,1.454,0,0,0,37.41,7.463Z" transform="translate(-15.463)" fill="#9a7a4d"/>
  </g>
</svg>
