<svg xmlns="http://www.w3.org/2000/svg" width="16.054" height="16.053" viewBox="0 0 16.054 16.053">
  <g id="phone-call_broken" transform="translate(0.501 0.552)">
    <path id="Path_132" data-name="Path 132" d="M15.583,8.917a3.235,3.235,0,0,1,1.667.833,3.235,3.235,0,0,1,.833,1.667M16,6a5.611,5.611,0,0,1,3.333,1.667A5.611,5.611,0,0,1,21,11m-1.645,9.994A1.53,1.53,0,0,0,21,19.489V17.231a1.5,1.5,0,0,0-.357-1.011,5.584,5.584,0,0,0-3.9-1.108c-.715.152-1.215.87-1.7,1.358a12.068,12.068,0,0,1-2.367-1.757m-2.158-2.759c.489-.488,1.208-.987,1.361-1.7a5.575,5.575,0,0,0-1.1-3.89,1.51,1.51,0,0,0-1-.364H7.507a1.529,1.529,0,0,0-1.5,1.641A13.166,13.166,0,0,0,16,20.589" transform="translate(-6 -6)" fill="none" stroke="#fff" stroke-linecap="round" stroke-linejoin="round" stroke-width="1"/>
  </g>
</svg>
