<svg xmlns="http://www.w3.org/2000/svg" width="25.808" height="25.925" viewBox="0 0 25.808 25.925">
  <g id="whatsapp" transform="translate(0 0)">
    <g id="Group_10" data-name="Group 10" transform="translate(0 0)">
      <path id="Path_17" data-name="Path 17" d="M22.037,3.769A12.726,12.726,0,0,0,12.953,0,12.856,12.856,0,0,0,1.816,19.267L0,25.924l6.812-1.786A12.854,12.854,0,0,0,12.953,25.7h.006A12.842,12.842,0,0,0,22.036,3.769ZM12.953,23.528a10.65,10.65,0,0,1-5.438-1.491L7.126,21.8l-4.041,1.06,1.079-3.942-.253-.407a10.673,10.673,0,1,1,9.041,5.013Zm5.857-7.994c-.319-.16-1.9-.937-2.192-1.047s-.51-.16-.721.16-.831,1.047-1.016,1.256-.376.24-.7.081a8.765,8.765,0,0,1-2.579-1.6,9.8,9.8,0,0,1-1.787-2.223c-.185-.321-.018-.493.143-.653.141-.143.319-.376.48-.561a2.049,2.049,0,0,0,.321-.535.6.6,0,0,0-.024-.562c-.081-.16-.721-1.743-.992-2.382s-.523-.543-.721-.551-.4-.011-.616-.011a1.181,1.181,0,0,0-.857.4,3.6,3.6,0,0,0-1.12,2.68,6.219,6.219,0,0,0,1.312,3.32,14.271,14.271,0,0,0,5.481,4.848,17.858,17.858,0,0,0,1.829.677,4.409,4.409,0,0,0,2.019.13,3.325,3.325,0,0,0,2.168-1.528,2.687,2.687,0,0,0,.185-1.528c-.079-.136-.295-.215-.616-.376Z" transform="translate(0 0)" fill="#fff"/>
    </g>
  </g>
</svg>
